<svg version="1.1" id="Layer_1" xmlns="http://www.w3.org/2000/svg" xmlns:xlink="http://www.w3.org/1999/xlink" x="0px" y="0px"
	 width="100%" viewBox="0 0 395 160" enable-background="new 0 0 395 160" xml:space="preserve">
<path fill="#FEFEFE" opacity="1.000000" stroke="none" 
	d="
M249.000000,161.000000 
	C166.000015,161.000000 83.500038,161.000000 1.000044,161.000000 
	C1.000030,107.666702 1.000030,54.333397 1.000015,1.000073 
	C132.666611,1.000049 264.333221,1.000049 395.999878,1.000024 
	C395.999908,54.333256 395.999908,107.666512 395.999939,160.999878 
	C347.166656,161.000000 298.333344,161.000000 249.000000,161.000000 
M118.847359,126.237473 
	C119.145477,126.058746 119.335831,125.800575 119.392647,125.354210 
	C119.392647,125.354210 119.491905,125.405563 120.130035,125.024780 
	C120.073669,123.329964 120.017303,121.635155 119.960945,119.940338 
	C118.236778,120.169235 116.382736,120.084045 114.829475,120.726280 
	C113.584106,121.241219 112.703751,122.638924 111.908295,123.885300 
	C111.908295,123.885300 111.697952,123.612328 111.138275,123.768585 
	C110.734299,124.162872 110.330322,124.557159 109.985237,125.001549 
	C109.985237,125.001549 109.958145,124.929146 109.341621,125.042374 
	C108.533897,125.674957 107.726173,126.307541 106.979317,126.996361 
	C106.979317,126.996361 106.959366,126.915939 106.367271,126.967262 
	C105.902481,127.306160 105.437683,127.645050 104.994789,128.004028 
	C104.994789,128.004028 104.990532,127.975807 104.353920,128.019867 
	C104.035194,128.283142 103.716469,128.546432 103.152985,128.761276 
	C103.152985,128.761276 103.005844,128.962784 102.280746,128.985809 
	C100.973663,129.586456 99.666573,130.187103 97.882355,130.760040 
	C97.560966,130.813553 97.270866,130.939255 96.159836,131.098724 
	C85.833549,134.108047 75.838638,132.483215 65.838699,128.754272 
	C65.838699,128.754272 65.608238,128.797318 65.197945,128.267685 
	C64.579285,128.018707 63.960629,127.769722 62.983379,127.960442 
	C63.103928,127.815842 63.224480,127.671234 62.907021,127.068016 
	C61.608917,126.370171 60.310814,125.672333 59.004250,125.003891 
	C59.004250,125.003891 59.028778,124.983841 58.712078,124.461960 
	C58.190289,124.161789 57.668499,123.861618 56.782276,123.071991 
	C56.590343,123.004631 56.398411,122.937263 56.376720,122.787880 
	C56.376720,122.787880 56.180672,122.851212 55.821636,122.222252 
	C54.577930,121.137909 53.334229,120.053566 51.943565,118.447220 
	C51.654236,118.251923 51.364910,118.056618 51.036182,117.952232 
	C51.036182,117.952232 51.126637,117.911804 50.909096,117.273560 
	C49.282223,115.167458 47.655350,113.061356 45.994141,110.989906 
	C45.994141,110.989906 46.041943,110.981262 45.981995,110.358330 
	C45.717155,110.052849 45.452316,109.747375 45.218231,109.153526 
	C45.218231,109.153526 44.973579,108.997803 44.972370,108.461220 
	C44.741077,108.208382 44.509785,107.955544 44.220585,107.813004 
	C44.220585,107.813004 44.341282,107.782204 44.277546,107.190140 
	C43.990177,106.685455 43.702808,106.180771 43.176388,106.016556 
	C43.176388,106.016556 43.444695,105.698578 43.272224,104.928993 
	C39.127094,93.828629 38.875477,82.694344 43.260773,71.625755 
	C43.756226,70.375221 45.360966,69.564171 46.617004,68.460342 
	C46.617004,68.460342 46.508247,68.613777 46.750591,69.091431 
	C47.150040,69.420570 47.549488,69.749702 47.990231,70.010048 
	C47.990231,70.010048 47.916122,70.040794 48.047813,70.562294 
	C48.340714,70.753281 48.633614,70.944267 48.968708,71.047165 
	C48.968708,71.047165 48.878105,71.083649 49.102772,71.728523 
	C51.238308,72.576706 53.603718,74.400917 55.437759,73.968964 
	C56.946529,73.613617 58.443211,70.710724 58.861969,68.710152 
	C59.945869,63.531929 60.569691,58.241631 61.072407,52.967026 
	C61.225285,51.363007 60.385174,49.664345 60.000954,47.999390 
	C60.000954,47.999390 59.991520,47.999695 59.646217,47.297752 
	C51.804813,47.287266 43.928036,46.850883 36.141205,47.497543 
	C33.419842,47.723549 31.812279,50.905235 34.000473,54.028770 
	C34.000473,54.028770 33.903446,54.065029 33.985561,54.662292 
	C34.537151,55.224480 35.088737,55.786671 35.999912,56.029175 
	C35.999912,56.029175 35.640137,56.344070 35.781609,56.820839 
	C35.953671,57.128952 36.210655,57.326702 36.838531,57.274006 
	C36.838531,57.274006 36.582638,57.463535 36.835102,58.038586 
	C37.866684,59.078953 38.898266,60.119316 39.944443,61.602791 
	C39.944443,61.602791 40.108723,62.014584 39.844742,62.602798 
	C39.544086,63.391232 39.243435,64.179665 39.006626,64.979752 
	C39.006626,64.979752 38.957905,64.936783 38.440197,65.326469 
	C38.161186,66.136589 37.882172,66.946701 37.785534,67.872566 
	C37.785534,67.872566 37.652451,67.702431 37.141277,68.197510 
	C35.887722,74.140518 34.634167,80.083534 33.182564,86.801376 
	C33.252544,87.859459 33.322529,88.917542 33.201454,90.599289 
	C33.392372,91.425369 33.583286,92.251450 33.629940,93.717232 
	C33.743233,94.134453 33.856529,94.551674 33.786224,95.153580 
	C33.731274,95.443542 33.817219,95.667305 33.943260,96.652908 
	C34.335106,98.435341 34.632996,100.244568 35.132744,101.996216 
	C44.019775,133.145813 77.782959,148.598419 106.799576,134.419647 
	C107.311562,134.092575 107.823555,133.765503 108.243523,133.086197 
	C108.243523,133.086197 108.377098,133.424866 109.050583,133.252106 
	C111.823158,131.259033 114.595726,129.265961 117.240433,127.232925 
	C117.240433,127.232925 117.303200,127.351265 117.801758,127.200829 
	C117.996635,126.923737 118.191505,126.646645 117.979774,126.065689 
	C118.112465,126.171318 118.245163,126.276955 118.847359,126.237473 
M176.005203,80.022247 
	C176.005203,80.022247 176.092911,80.048782 175.527008,80.381371 
	C175.392441,80.994766 175.257874,81.608162 175.126480,82.830200 
	C175.022980,83.221146 174.919479,83.612083 174.396774,84.423607 
	C174.392853,84.807259 174.388947,85.190918 174.436249,86.353912 
	C174.215546,87.903595 173.994843,89.453285 173.224152,91.332001 
	C173.188461,92.564636 173.152786,93.797272 173.158646,95.887192 
	C172.996811,97.593918 172.834976,99.300636 172.299210,101.321861 
	C172.432205,101.879379 172.565201,102.436897 172.910522,103.630196 
	C172.947342,104.074142 172.984161,104.518089 173.013504,105.377998 
	C173.083542,105.671082 173.257584,105.875671 173.884293,106.413460 
	C173.933792,106.589005 173.983307,106.764542 174.157104,107.434616 
	C174.427658,107.626099 174.698227,107.817581 175.602859,108.361488 
	C181.081940,112.465927 187.354630,111.277222 193.419708,110.818565 
	C199.006790,110.396057 199.623276,109.202637 198.320374,103.392952 
	C194.706757,103.643288 191.091644,104.064293 187.472031,104.107422 
	C180.834351,104.186508 180.056320,103.089516 181.604141,95.964600 
	C184.941360,95.964600 188.394409,95.976059 191.847336,95.962486 
	C202.752792,95.919617 203.291473,95.307961 202.965027,84.174248 
	C202.837891,79.837700 200.806396,76.625969 196.816483,75.410690 
	C189.679352,73.236801 182.675217,73.218056 176.412399,79.213524 
	C176.147079,79.445541 176.032822,79.736839 176.005203,80.022247 
M207.955124,87.653824 
	C208.191498,88.485359 208.427872,89.316895 208.756577,90.777359 
	C208.864868,91.185593 208.973175,91.593834 208.960358,92.814919 
	C210.114639,98.545876 211.268906,104.276833 212.414261,109.963470 
	C217.137924,110.187866 220.913986,110.203857 222.520050,104.254311 
	C223.871796,99.246864 227.146835,94.758606 230.246841,88.723839 
	C231.455139,95.364899 232.198822,100.727570 233.506821,105.948891 
	C233.963867,107.773323 235.503265,110.134453 237.092575,110.687981 
	C239.835815,111.643394 242.384949,110.794785 243.749985,107.336517 
	C246.309082,100.853088 249.373993,94.569664 252.214310,88.196724 
	C254.005890,84.176903 255.771622,80.145569 257.643372,75.905540 
	C252.588837,74.290985 249.548492,74.792992 247.710159,79.839584 
	C245.586777,85.668770 242.608658,91.186607 240.001663,96.839630 
	C237.924225,90.785355 237.170059,85.035995 235.877319,79.410416 
	C235.502716,77.780312 233.841705,75.766884 232.315094,75.234299 
	C229.819260,74.363579 227.646591,75.396088 226.526688,78.371956 
	C224.176865,84.616104 221.504425,90.738831 218.229385,96.725410 
	C217.814743,95.883194 217.186279,95.080811 217.020752,94.192200 
	C216.067734,89.075928 215.341507,83.914314 214.259933,78.827286 
	C213.994949,77.581017 212.689270,76.556007 211.319809,75.187805 
	C210.929092,75.210678 210.538361,75.233551 209.446869,75.079788 
	C206.645386,74.893364 205.542740,76.001450 206.307846,78.875313 
	C207.018661,81.545326 207.502472,84.275787 207.955124,87.653824 
M169.272598,85.284012 
	C169.377640,84.813416 169.482697,84.342812 169.899521,83.427574 
	C169.667801,82.622177 169.436066,81.816788 168.994507,80.544609 
	C168.991440,80.374039 168.988358,80.203476 168.941681,79.593468 
	C168.828705,79.296913 168.621017,79.100525 167.831741,78.509186 
	C166.548004,77.533371 165.264282,76.557564 163.708542,75.227768 
	C163.449417,75.036842 163.164642,74.983986 162.075058,75.095245 
	C161.048660,74.947792 160.022263,74.800339 158.827667,74.373444 
	C158.498764,74.173782 158.229340,74.239433 157.345764,74.701981 
	C156.891174,74.667343 156.436584,74.632706 155.775146,74.340027 
	C155.413101,74.214294 155.154953,74.334755 154.267426,74.895584 
	C153.511536,74.929298 152.755661,74.963013 151.498077,74.454140 
	C149.658646,74.658943 147.819199,74.863739 145.183182,75.134560 
	C141.186966,74.335884 140.218704,76.823997 139.390457,80.473572 
	C139.292328,82.324272 139.194199,84.174973 139.148270,86.829918 
	C138.993942,87.889885 138.839630,88.949860 138.300934,90.432838 
	C138.302628,90.805344 138.304321,91.177856 138.391525,92.298012 
	C138.211975,93.535561 138.032440,94.773102 137.343460,96.427063 
	C137.257019,97.958961 137.170578,99.490860 137.157547,101.870018 
	C136.888229,104.610413 136.618912,107.350807 136.319595,110.396591 
	C139.558060,110.635529 142.857468,112.766815 144.655090,107.554924 
	C144.756882,106.033424 144.858688,104.511932 144.875214,102.151222 
	C145.035843,100.758881 145.196487,99.366531 145.774094,97.516777 
	C145.794647,96.912140 145.815216,96.307510 145.729446,95.024933 
	C145.850433,94.352638 145.971420,93.680344 146.825684,92.826225 
	C147.503922,89.794113 148.182159,86.762001 149.030960,83.304672 
	C149.231186,83.040497 149.497025,82.909798 150.727005,82.986168 
	C154.086914,83.334908 157.446808,83.683647 161.008957,84.846413 
	C160.913742,86.234093 160.818512,87.621773 160.327209,89.455307 
	C160.350998,89.841949 160.374786,90.228592 160.486710,91.352875 
	C160.284821,92.570404 160.082932,93.787941 159.287796,95.345650 
	C159.221786,96.904694 159.155762,98.463730 159.147766,100.869308 
	C158.784775,103.901009 158.421768,106.932709 158.191650,110.491371 
	C158.508423,110.635597 158.825180,110.779816 159.952423,110.856316 
	C162.004578,110.567574 164.056732,110.278824 166.684998,109.699829 
	C166.782761,108.464890 166.880539,107.229942 166.879623,105.188889 
	C167.025558,104.121292 167.171478,103.053688 167.695663,101.547783 
	C167.678528,101.171257 167.661392,100.794724 167.559570,99.728310 
	C167.726547,98.820663 167.893524,97.913025 168.777512,96.843819 
	C168.824951,94.888397 168.872391,92.932976 168.841812,90.179497 
	C168.969772,89.120804 169.097748,88.062111 169.522507,86.836365 
	C169.579880,86.739082 169.707901,86.611488 169.681564,86.550133 
	C169.598419,86.356392 169.457474,86.187454 169.272598,85.284012 
M132.877747,78.576363 
	C132.722824,78.262794 132.477341,78.057472 131.582199,77.620377 
	C130.717621,76.959496 129.853043,76.298615 128.722824,75.264717 
	C128.464767,75.058823 128.174988,74.993416 127.050789,75.028870 
	C123.523582,74.767120 119.996376,74.505371 115.930244,74.139282 
	C115.624352,74.315338 115.318459,74.491394 114.380264,74.929604 
	C113.928185,74.980400 113.476105,75.031189 112.695183,74.605522 
	C112.133759,75.074104 111.572327,75.542686 110.587845,76.540230 
	C108.971939,79.132851 106.644562,81.537575 105.899155,84.360085 
	C104.634644,89.148193 104.304237,94.192024 103.697273,99.142601 
	C102.853928,106.021172 105.847923,110.138771 112.715042,110.880783 
	C116.651054,111.306084 120.698898,111.126190 124.659683,110.788406 
	C130.148804,110.320297 130.834610,109.017830 129.361359,103.380722 
	C125.547852,103.629684 121.749344,104.084877 117.951515,104.079300 
	C111.502304,104.069839 110.503738,102.412277 112.877831,95.896965 
	C118.259743,95.896965 123.748795,96.019508 129.225098,95.809639 
	C130.571472,95.758041 131.876312,94.622246 133.700043,93.436584 
	C133.787964,91.946632 133.875885,90.456688 133.897079,88.216637 
	C133.997849,87.472870 134.098618,86.729103 134.641541,85.604774 
	C134.505798,84.742485 134.370041,83.880196 134.016724,82.354813 
	C133.668671,81.256149 133.320633,80.157494 132.877747,78.576363 
M96.890648,105.462387 
	C94.955612,101.313843 93.020569,97.165291 91.059372,92.960663 
	C92.434303,92.287964 93.449585,91.724831 94.514595,91.281044 
	C100.874046,88.631157 102.231171,80.988686 101.709869,74.552780 
	C101.320969,69.751526 97.711906,66.787544 90.969803,65.876915 
	C85.889053,65.190674 80.681633,65.497406 75.545265,65.147133 
	C72.445076,64.935715 71.157631,65.896049 70.860023,69.197395 
	C70.218155,76.317505 69.059700,83.390160 68.157806,90.487976 
	C67.326324,97.031685 66.553902,103.582901 65.765366,110.049591 
	C73.073296,111.790436 73.333862,111.621460 74.305565,105.112320 
	C74.862305,101.382889 75.428772,97.654922 75.950020,94.197227 
	C80.533989,92.793526 83.186989,94.253159 84.825996,98.060295 
	C86.007721,100.805244 87.510468,103.411591 88.702438,106.152634 
	C91.054245,111.560844 92.005707,111.985817 98.354195,109.849503 
	C97.948074,108.620750 97.540894,107.388794 96.890648,105.462387 
M361.408569,91.456360 
	C365.434509,86.532242 369.460449,81.608131 373.260651,76.960129 
	C368.175293,73.418533 364.821747,76.034103 361.748840,80.052986 
	C360.240356,82.025803 358.466797,83.823578 356.640533,85.514030 
	C355.740997,86.346687 354.448914,86.755287 352.469116,87.822060 
	C353.587463,78.469994 354.560974,70.329269 355.569122,61.898666 
	C352.748871,61.898666 350.504456,61.898666 347.973297,61.898666 
	C345.888031,78.017746 343.846069,93.802124 341.751343,109.994568 
	C344.613068,109.994568 347.007172,109.994568 349.566772,109.994568 
	C350.104034,105.552917 350.516418,101.427574 351.154266,97.337395 
	C351.329742,96.212029 352.178711,95.191689 352.718658,94.123161 
	C353.654022,94.847809 354.896057,95.387070 355.467285,96.331879 
	C357.183655,99.170738 358.634521,102.169846 360.196136,105.102623 
	C363.398865,111.117302 363.932129,111.338203 370.763611,109.417267 
	C367.765808,103.645348 364.781647,97.899681 361.408569,91.456360 
M306.170593,99.537292 
	C306.069427,106.986969 308.928162,110.174515 316.268585,110.844841 
	C321.944061,111.363121 327.497528,107.824585 333.251984,110.335350 
	C333.564362,110.471626 334.142944,109.997810 334.770203,109.735931 
	C336.060638,99.929855 337.420532,90.074318 338.626678,80.200005 
	C339.123962,76.128624 337.133575,74.835121 333.193390,76.005943 
	C331.866974,76.400093 330.114044,76.154488 328.786499,75.624252 
	C317.501587,71.117004 309.341766,75.845612 307.857697,87.830986 
	C307.409180,91.453285 306.828217,95.059174 306.170593,99.537292 
M272.843903,82.039543 
	C274.502747,81.999100 276.161438,81.934647 277.820496,81.922623 
	C283.266785,81.883133 283.738770,81.214241 282.278076,74.883728 
	C279.344696,74.883728 276.291260,74.883728 273.213715,74.883728 
	C273.481323,71.842758 273.706085,69.288948 273.914459,66.920853 
	C264.718201,63.350334 266.339691,70.874298 264.952881,75.216103 
	C259.771210,74.703262 258.055511,76.928017 259.412964,81.773689 
	C260.961700,81.881714 262.391724,81.981461 264.291443,82.113968 
	C263.606598,87.498512 262.780090,92.541107 262.393799,97.617203 
	C262.185150,100.358574 262.199066,103.334496 263.053833,105.889732 
	C264.441010,110.036484 270.926178,112.309151 276.392944,110.304352 
	C278.189240,109.645599 279.144653,106.693970 280.484558,104.790833 
	C278.414886,103.755852 277.624176,103.785034 276.834137,103.826523 
	C270.337646,104.167679 269.451508,103.301071 270.198975,96.931717 
	C270.759918,92.152222 271.487579,87.392296 272.843903,82.039543 
M83.548660,35.973217 
	C78.327545,36.878571 73.080147,37.658146 67.896278,38.741703 
	C65.256668,39.293446 62.239006,40.368500 63.536964,43.961151 
	C64.722992,47.243973 67.443924,46.004070 69.897804,45.237259 
	C89.716583,39.044113 108.714088,45.311348 121.155067,62.142696 
	C122.720863,64.261047 124.355766,66.610611 127.137634,64.522812 
	C129.867538,62.474010 128.167679,60.077522 126.656578,57.995667 
	C116.255287,43.665760 102.097397,36.519630 83.548660,35.973217 
M303.019165,81.329330 
	C308.185852,81.152512 306.757019,77.582062 306.795319,74.542061 
	C300.684937,74.864334 294.890686,75.169930 288.892151,75.486290 
	C287.633392,85.018150 286.355713,94.584450 285.118866,104.156021 
	C284.886719,105.952568 284.817566,107.770180 284.641571,109.974190 
	C287.245117,109.974190 289.599945,109.974190 292.126312,109.974190 
	C293.077240,102.839119 294.112061,96.103233 294.829865,89.333740 
	C295.322693,84.685722 297.537262,81.981819 303.019165,81.329330 
z"/>
<path fill="#09167A" opacity="1.000000" stroke="none" 
	d="
M65.608238,128.797318 
	C65.608238,128.797318 65.838699,128.754272 66.071686,129.169037 
	C73.756859,135.062454 82.237694,134.485657 90.692078,133.504089 
	C92.861092,133.252274 94.908669,131.954437 97.012039,131.137146 
	C97.270866,130.939255 97.560966,130.813553 98.545631,130.833435 
	C100.474556,130.258820 101.740196,129.610794 103.005844,128.962769 
	C103.005844,128.962784 103.152985,128.761276 103.596336,128.771011 
	C104.356636,128.512436 104.673584,128.244110 104.990532,127.975807 
	C104.990532,127.975807 104.994789,128.004028 105.290947,127.989883 
	C106.044525,127.622475 106.501945,127.269203 106.959366,126.915939 
	C106.959366,126.915939 106.979317,126.996361 107.311996,126.987106 
	C108.415840,126.294952 109.186989,125.612045 109.958145,124.929138 
	C109.958145,124.929146 109.985237,125.001549 110.279335,124.965424 
	C110.948273,124.490303 111.323112,124.051315 111.697952,123.612328 
	C111.697952,123.612328 111.908295,123.885300 112.145889,123.842651 
	C114.118935,123.007515 115.854393,122.215034 117.985588,121.241852 
	C118.539154,122.772011 119.015533,124.088791 119.491905,125.405563 
	C119.491905,125.405563 119.392647,125.354210 119.114868,125.385452 
	C118.684013,125.738655 118.530937,126.060623 118.377869,126.382591 
	C118.245163,126.276955 118.112465,126.171318 117.889885,126.221344 
	C117.634399,126.701759 117.468803,127.026512 117.303207,127.351265 
	C117.303200,127.351265 117.240433,127.232925 116.932579,127.277611 
	C113.875519,129.356491 111.126305,131.390671 108.377098,133.424866 
	C108.377098,133.424866 108.243523,133.086197 107.934708,133.168152 
	C107.147179,133.678726 106.668457,134.107330 106.189735,134.535950 
	C77.782959,148.598419 44.019775,133.145813 35.132744,101.996216 
	C34.632996,100.244568 34.335106,98.435341 33.997078,96.023270 
	C34.050900,95.393639 33.969826,94.968895 33.969826,94.968895 
	C33.856529,94.551674 33.743233,94.134453 33.974998,93.237061 
	C34.010876,91.829803 33.701694,90.902710 33.392513,89.975624 
	C33.322529,88.917542 33.252544,87.859459 33.628708,86.292915 
	C35.267384,79.757111 36.459919,73.729774 37.652451,67.702431 
	C37.652451,67.702431 37.785534,67.872566 38.034843,67.721611 
	C38.508736,66.692696 38.733318,65.814743 38.957901,64.936783 
	C38.957905,64.936783 39.006626,64.979752 39.297298,64.941223 
	C39.761555,63.939991 39.935139,62.977287 40.108723,62.014584 
	C40.108723,62.014584 39.944443,61.602791 39.957108,60.963066 
	C40.118149,57.857101 39.320366,56.511486 36.582638,57.463535 
	C36.582638,57.463535 36.838531,57.274006 36.716248,57.053978 
	C36.276020,56.670654 35.958076,56.507362 35.640137,56.344070 
	C35.640137,56.344070 35.999912,56.029175 35.887390,55.840561 
	C35.151062,55.122974 34.527256,54.594002 33.903446,54.065029 
	C33.903446,54.065029 34.000473,54.028770 33.997471,53.677288 
	C35.642616,51.558052 37.172340,48.419212 38.959843,48.264816 
	C45.926064,47.663105 52.973984,48.007309 59.991520,47.999695 
	C59.991520,47.999695 60.000954,47.999390 59.994934,48.447586 
	C59.298416,55.426334 58.877125,62.005989 57.702087,68.448158 
	C57.451420,69.822456 54.569592,70.986404 52.691082,71.688431 
	C51.641949,72.080505 50.163239,71.323090 48.878105,71.083649 
	C48.878105,71.083649 48.968708,71.047165 48.868954,70.837418 
	C48.484840,70.432045 48.200481,70.236420 47.916122,70.040794 
	C47.916122,70.040794 47.990231,70.010048 47.951534,69.719513 
	C47.444641,69.157249 46.976444,68.885513 46.508247,68.613777 
	C46.508247,68.613777 46.617004,68.460342 46.536755,68.133041 
	C45.030697,68.224167 42.550682,68.354774 42.345451,69.106461 
	C40.666374,75.256294 38.179722,81.561462 38.378117,87.741104 
	C38.571827,93.774925 41.638973,99.716507 43.444695,105.698578 
	C43.444695,105.698578 43.176388,106.016556 43.193520,106.180038 
	C43.587532,106.823082 43.964405,107.302643 44.341282,107.782204 
	C44.341282,107.782204 44.220585,107.813004 44.241608,108.026031 
	C44.499611,108.491966 44.736595,108.744888 44.973579,108.997803 
	C44.973579,108.997803 45.218231,109.153526 45.222610,109.611694 
	C45.498642,110.373665 45.770294,110.677460 46.041943,110.981262 
	C46.041943,110.981262 45.994141,110.989906 46.000095,111.346916 
	C47.712910,113.773216 49.419773,115.842514 51.126637,117.911804 
	C51.126637,117.911804 51.036182,117.952232 51.134560,118.162796 
	C51.518803,118.571976 51.804665,118.770599 52.090523,118.969223 
	C53.334229,120.053566 54.577930,121.137909 56.009407,122.533264 
	C56.197174,122.844269 56.206482,122.869904 56.206482,122.869904 
	C56.398411,122.937263 56.590343,123.004631 57.045044,123.637672 
	C57.881470,124.463516 58.455124,124.723679 59.028778,124.983841 
	C59.028778,124.983841 59.004250,125.003891 59.048801,125.363434 
	C60.510578,126.324196 61.927803,126.925415 63.345032,127.526634 
	C63.224480,127.671234 63.103928,127.815842 63.246262,128.110825 
	C64.208839,128.439911 64.908539,128.618607 65.608238,128.797318 
M42.058514,55.942158 
	C42.058514,55.942158 42.086098,55.847805 42.251289,56.364006 
	C42.543560,56.560905 42.835835,56.757805 43.578987,57.128353 
	C43.850540,57.340942 43.995975,57.619400 44.009624,58.705734 
	C45.789970,60.429489 47.570320,62.153244 49.745968,64.022621 
	C49.975754,64.218109 50.089844,64.466690 50.260319,65.308472 
	C50.573654,65.499519 50.886993,65.690567 51.085335,65.917542 
	C51.085335,65.917542 51.143547,65.812065 51.097355,66.432816 
	C51.476280,67.093224 51.855206,67.753632 52.653988,69.145790 
	C52.857841,67.609016 52.935936,67.020325 53.342991,66.061287 
	C53.342991,66.061287 53.806858,65.887489 54.450653,65.506516 
	C54.770290,61.662292 55.089931,57.818069 55.197014,53.296467 
	C54.807819,52.732811 54.418625,52.169155 53.788670,50.919357 
	C49.823509,50.678242 45.800507,49.919991 41.910984,50.355068 
	C38.634426,50.721584 38.469559,52.898197 41.096058,54.910374 
	C41.096058,54.910374 41.140270,54.791004 41.265877,55.325672 
	C41.561543,55.521976 41.857208,55.718285 42.058514,55.942158 
z"/>
<path fill="#EB194A" opacity="1.000000" stroke="none" 
	d="
M97.012177,105.809616 
	C97.540894,107.388794 97.948074,108.620750 98.354195,109.849503 
	C92.005707,111.985817 91.054245,111.560844 88.702438,106.152634 
	C87.510468,103.411591 86.007721,100.805244 84.825996,98.060295 
	C83.186989,94.253159 80.533989,92.793526 75.950020,94.197227 
	C75.428772,97.654922 74.862305,101.382889 74.305565,105.112320 
	C73.333862,111.621460 73.073296,111.790436 65.765366,110.049591 
	C66.553902,103.582901 67.326324,97.031685 68.157806,90.487976 
	C69.059700,83.390160 70.218155,76.317505 70.860023,69.197395 
	C71.157631,65.896049 72.445076,64.935715 75.545265,65.147133 
	C80.681633,65.497406 85.889053,65.190674 90.969803,65.876915 
	C97.711906,66.787544 101.320969,69.751526 101.709869,74.552780 
	C102.231171,80.988686 100.874046,88.631157 94.514595,91.281044 
	C93.449585,91.724831 92.434303,92.287964 91.059372,92.960663 
	C93.020569,97.165291 94.955612,101.313843 97.012177,105.809616 
M93.366257,75.275261 
	C89.711983,70.672997 84.566162,72.603745 79.959084,72.341606 
	C79.415993,72.310707 78.395531,73.590424 78.277222,74.366394 
	C77.682739,78.265617 77.314514,82.199326 76.871689,86.078278 
	C88.924118,88.584198 93.528595,85.729073 93.366257,75.275261 
z"/>
<path fill="#EB1748" opacity="1.000000" stroke="none" 
	d="
M218.964447,96.911407 
	C221.504425,90.738831 224.176865,84.616104 226.526688,78.371956 
	C227.646591,75.396088 229.819260,74.363579 232.315094,75.234299 
	C233.841705,75.766884 235.502716,77.780312 235.877319,79.410416 
	C237.170059,85.035995 237.924225,90.785355 240.001663,96.839630 
	C242.608658,91.186607 245.586777,85.668770 247.710159,79.839584 
	C249.548492,74.792992 252.588837,74.290985 257.643372,75.905540 
	C255.771622,80.145569 254.005890,84.176903 252.214310,88.196724 
	C249.373993,94.569664 246.309082,100.853088 243.749985,107.336517 
	C242.384949,110.794785 239.835815,111.643394 237.092575,110.687981 
	C235.503265,110.134453 233.963867,107.773323 233.506821,105.948891 
	C232.198822,100.727570 231.455139,95.364899 230.246841,88.723839 
	C227.146835,94.758606 223.871796,99.246864 222.520050,104.254311 
	C220.913986,110.203857 217.137924,110.187866 212.414261,109.963470 
	C211.268906,104.276833 210.114639,98.545876 209.394562,92.461365 
	C210.558929,93.583435 211.127701,95.171051 212.056183,96.509079 
	C213.536804,98.642830 215.256790,100.610497 216.875565,102.648392 
	C217.571854,100.736061 218.268158,98.823738 218.964447,96.911407 
z"/>
<path fill="#0E1A77" opacity="1.000000" stroke="none" 
	d="
M361.603027,91.805183 
	C364.781647,97.899681 367.765808,103.645348 370.763611,109.417267 
	C363.932129,111.338203 363.398865,111.117302 360.196136,105.102623 
	C358.634521,102.169846 357.183655,99.170738 355.467285,96.331879 
	C354.896057,95.387070 353.654022,94.847809 352.718658,94.123161 
	C352.178711,95.191689 351.329742,96.212029 351.154266,97.337395 
	C350.516418,101.427574 350.104034,105.552917 349.566772,109.994568 
	C347.007172,109.994568 344.613068,109.994568 341.751343,109.994568 
	C343.846069,93.802124 345.888031,78.017746 347.973297,61.898666 
	C350.504456,61.898666 352.748871,61.898666 355.569122,61.898666 
	C354.560974,70.329269 353.587463,78.469994 352.469116,87.822060 
	C354.448914,86.755287 355.740997,86.346687 356.640533,85.514030 
	C358.466797,83.823578 360.240356,82.025803 361.748840,80.052986 
	C364.821747,76.034103 368.175293,73.418533 373.260651,76.960129 
	C369.460449,81.608131 365.434509,86.532242 361.603027,91.805183 
z"/>
<path fill="#0E1A78" opacity="1.000000" stroke="none" 
	d="
M306.239258,99.104935 
	C306.828217,95.059174 307.409180,91.453285 307.857697,87.830986 
	C309.341766,75.845612 317.501587,71.117004 328.786499,75.624252 
	C330.114044,76.154488 331.866974,76.400093 333.193390,76.005943 
	C337.133575,74.835121 339.123962,76.128624 338.626678,80.200005 
	C337.420532,90.074318 336.060638,99.929855 334.770203,109.735931 
	C334.142944,109.997810 333.564362,110.471626 333.251984,110.335350 
	C327.497528,107.824585 321.944061,111.363121 316.268585,110.844841 
	C308.928162,110.174515 306.069427,106.986969 306.239258,99.104935 
M314.114410,99.306976 
	C314.178864,102.774673 315.628082,104.865746 319.392548,104.989372 
	C323.990143,105.140366 327.004089,102.890831 328.203552,98.706139 
	C329.154327,95.389191 329.311523,91.846092 329.838806,88.406113 
	C330.422150,84.600494 329.463135,81.851654 325.157928,81.170792 
	C320.083099,80.368217 316.682739,82.041344 315.911407,86.153320 
	C315.148193,90.222389 314.730286,94.356247 314.114410,99.306976 
z"/>
<path fill="#E91848" opacity="1.000000" stroke="none" 
	d="
M133.200226,93.984894 
	C131.876312,94.622246 130.571472,95.758041 129.225098,95.809639 
	C123.748795,96.019508 118.259743,95.896965 112.877831,95.896965 
	C110.503738,102.412277 111.502304,104.069839 117.951515,104.079300 
	C121.749344,104.084877 125.547852,103.629684 129.361359,103.380722 
	C130.834610,109.017830 130.148804,110.320297 124.659683,110.788406 
	C120.698898,111.126190 116.651054,111.306084 112.715042,110.880783 
	C105.847923,110.138771 102.853928,106.021172 103.697273,99.142601 
	C104.304237,94.192024 104.634644,89.148193 105.899155,84.360085 
	C106.644562,81.537575 108.971939,79.132851 111.092529,76.273270 
	C112.072823,75.698204 112.548424,75.390091 113.024025,75.081985 
	C113.476105,75.031189 113.928185,74.980400 114.964600,74.843559 
	C115.855675,74.586220 116.162422,74.414917 116.469170,74.243622 
	C119.996376,74.505371 123.523582,74.767120 127.585098,75.237656 
	C128.119400,75.446442 128.527695,75.661339 128.527695,75.661339 
	C128.527695,75.661339 128.988464,75.637733 128.988464,75.637733 
	C129.853043,76.298615 130.717621,76.959496 131.909882,78.030952 
	C132.395004,78.751549 132.640015,78.957314 132.972580,79.058830 
	C133.320633,80.157494 133.668671,81.256149 134.033646,83.051392 
	C134.100174,84.493759 134.149780,85.239548 134.199387,85.985336 
	C134.098618,86.729103 133.997849,87.472870 133.740479,88.902161 
	C133.455994,91.053429 133.328110,92.519157 133.200226,93.984894 
M117.688400,89.798019 
	C120.309944,89.798019 122.931480,89.798019 126.787254,89.798019 
	C125.945335,86.632744 125.965065,82.903267 124.549942,82.241364 
	C122.183922,81.134674 118.481827,81.132698 116.136940,82.284233 
	C114.245125,83.213272 113.525757,86.529800 111.926216,89.442833 
	C114.500237,89.628571 115.641685,89.710938 117.688400,89.798019 
z"/>
<path fill="#E91849" opacity="1.000000" stroke="none" 
	d="
M174.815964,84.003021 
	C174.919479,83.612083 175.022980,83.221146 175.356247,82.318954 
	C175.754974,81.221405 175.923950,80.635094 176.092926,80.048782 
	C176.092911,80.048782 176.005203,80.022247 176.257538,79.949326 
	C176.774628,79.639671 176.885925,79.344971 176.843765,78.992310 
	C182.675217,73.218056 189.679352,73.236801 196.816483,75.410690 
	C200.806396,76.625969 202.837891,79.837700 202.965027,84.174248 
	C203.291473,95.307961 202.752792,95.919617 191.847336,95.962486 
	C188.394409,95.976059 184.941360,95.964600 181.604141,95.964600 
	C180.056320,103.089516 180.834351,104.186508 187.472031,104.107422 
	C191.091644,104.064293 194.706757,103.643288 198.320374,103.392952 
	C199.623276,109.202637 199.006790,110.396057 193.419708,110.818565 
	C187.354630,111.277222 181.081940,112.465927 175.231049,107.933434 
	C174.583755,107.316948 174.308304,107.128517 174.032837,106.940086 
	C173.983307,106.764542 173.933792,106.589005 173.719452,105.994156 
	C173.474228,105.285713 173.296356,105.081444 173.020996,104.962036 
	C172.984161,104.518089 172.947342,104.074142 172.884949,102.983452 
	C172.797287,101.893593 172.735214,101.450478 172.673141,101.007362 
	C172.834976,99.300636 172.996811,97.593918 173.351379,95.181763 
	C173.620789,93.318550 173.697449,92.160759 173.774139,91.002968 
	C173.994843,89.453285 174.215546,87.903595 174.600800,85.745483 
	C174.782211,84.759048 174.799088,84.381035 174.815964,84.003021 
M195.138718,85.651932 
	C195.041229,80.135643 190.946228,80.970528 187.648804,81.256958 
	C183.455200,81.621231 182.029648,84.273048 182.706467,89.770805 
	C185.778625,89.770805 188.933533,90.065002 191.981171,89.621750 
	C193.152283,89.451416 194.078979,87.600761 195.138718,85.651932 
z"/>
<path fill="#EA194A" opacity="1.000000" stroke="none" 
	d="
M160.723282,89.009453 
	C160.818512,87.621773 160.913742,86.234093 160.893265,84.105667 
	C157.243317,80.419807 153.564362,80.977249 149.828476,82.912560 
	C149.497025,82.909798 149.231186,83.040497 148.625214,83.702682 
	C147.510437,87.069809 146.801422,90.038925 146.092407,93.008049 
	C145.971420,93.680344 145.850433,94.352638 145.608719,95.613815 
	C145.444366,96.793190 145.400742,97.383690 145.357117,97.974190 
	C145.196487,99.366531 145.035843,100.758881 144.718842,102.876724 
	C144.434082,105.063599 144.305695,106.524963 144.177307,107.986336 
	C142.857468,112.766815 139.558060,110.635529 136.319595,110.396591 
	C136.618912,107.350807 136.888229,104.610413 137.317581,101.138580 
	C137.602707,98.941650 137.727798,97.476151 137.852905,96.010651 
	C138.032440,94.773102 138.211975,93.535561 138.537781,91.710289 
	C138.684464,90.751656 138.684891,90.380737 138.685303,90.009827 
	C138.839630,88.949860 138.993942,87.889885 139.321899,86.107285 
	C139.627777,83.592705 139.760025,81.800751 139.892258,80.008804 
	C140.218704,76.823997 141.186966,74.335884 145.811050,75.338913 
	C148.292542,75.361084 150.146149,75.178909 151.999771,74.996735 
	C152.755661,74.963013 153.511536,74.929298 154.887939,74.853851 
	C155.666275,74.740768 155.824127,74.669418 155.981995,74.598068 
	C156.436584,74.632706 156.891174,74.667343 157.919952,74.736687 
	C158.661377,74.731895 158.828613,74.692390 158.995865,74.652885 
	C160.022263,74.800339 161.048660,74.947792 162.599091,75.263458 
	C163.123138,75.431679 163.531784,75.621330 163.531784,75.621330 
	C163.531784,75.621330 163.980545,75.581749 163.980545,75.581749 
	C165.264282,76.557564 166.548004,77.533371 168.095184,78.975739 
	C168.483398,79.728394 168.692276,79.925262 168.985291,80.032906 
	C168.988358,80.203476 168.991440,80.374039 169.059814,81.143494 
	C169.279343,82.452316 169.433548,83.162262 169.587738,83.872208 
	C169.482697,84.342812 169.377640,84.813416 169.198975,85.886154 
	C169.158813,86.660004 169.192261,86.831711 169.225723,87.003418 
	C169.097748,88.062111 168.969772,89.120804 168.676819,90.898712 
	C168.361389,93.413742 168.210953,95.209564 168.060501,97.005379 
	C167.893524,97.913025 167.726547,98.820663 167.420242,100.296204 
	C167.293076,101.238098 167.305237,101.612099 167.317413,101.986092 
	C167.171478,103.053688 167.025558,104.121292 166.732208,105.876617 
	C166.426163,107.706253 166.267517,108.848167 166.108887,109.990082 
	C164.056732,110.278824 162.004578,110.567574 159.392822,110.702232 
	C158.595642,110.326286 158.337494,110.131706 158.058777,109.964417 
	C158.421768,106.932709 158.784775,103.901009 159.333145,100.147537 
	C159.639359,97.952332 159.760193,96.478905 159.881027,95.005470 
	C160.082932,93.787941 160.284821,92.570404 160.619263,90.751900 
	C160.742310,89.770432 160.732788,89.389946 160.723282,89.009453 
z"/>
<path fill="#0F1B77" opacity="1.000000" stroke="none" 
	d="
M272.492462,82.331604 
	C271.487579,87.392296 270.759918,92.152222 270.198975,96.931717 
	C269.451508,103.301071 270.337646,104.167679 276.834137,103.826523 
	C277.624176,103.785034 278.414886,103.755852 280.484558,104.790833 
	C279.144653,106.693970 278.189240,109.645599 276.392944,110.304352 
	C270.926178,112.309151 264.441010,110.036484 263.053833,105.889732 
	C262.199066,103.334496 262.185150,100.358574 262.393799,97.617203 
	C262.780090,92.541107 263.606598,87.498512 264.291443,82.113968 
	C262.391724,81.981461 260.961700,81.881714 259.412964,81.773689 
	C258.055511,76.928017 259.771210,74.703262 264.952881,75.216103 
	C266.339691,70.874298 264.718201,63.350334 273.914459,66.920853 
	C273.706085,69.288948 273.481323,71.842758 273.213715,74.883728 
	C276.291260,74.883728 279.344696,74.883728 282.278076,74.883728 
	C283.738770,81.214241 283.266785,81.883133 277.820496,81.922623 
	C276.161438,81.934647 274.502747,81.999100 272.492462,82.331604 
z"/>
<path fill="#101B77" opacity="1.000000" stroke="none" 
	d="
M84.021606,35.972977 
	C102.097397,36.519630 116.255287,43.665760 126.656578,57.995667 
	C128.167679,60.077522 129.867538,62.474010 127.137634,64.522812 
	C124.355766,66.610611 122.720863,64.261047 121.155067,62.142696 
	C108.714088,45.311348 89.716583,39.044113 69.897804,45.237259 
	C67.443924,46.004070 64.722992,47.243973 63.536964,43.961151 
	C62.239006,40.368500 65.256668,39.293446 67.896278,38.741703 
	C73.080147,37.658146 78.327545,36.878571 84.021606,35.972977 
z"/>
<path fill="#0E1976" opacity="1.000000" stroke="none" 
	d="
M302.612885,81.353561 
	C297.537262,81.981819 295.322693,84.685722 294.829865,89.333740 
	C294.112061,96.103233 293.077240,102.839119 292.126312,109.974190 
	C289.599945,109.974190 287.245117,109.974190 284.641571,109.974190 
	C284.817566,107.770180 284.886719,105.952568 285.118866,104.156021 
	C286.355713,94.584450 287.633392,85.018150 288.892151,75.486290 
	C294.890686,75.169930 300.684937,74.864334 306.795319,74.542061 
	C306.757019,77.582062 308.185852,81.152512 302.612885,81.353561 
z"/>
<path fill="#EB1A4C" opacity="1.000000" stroke="none" 
	d="
M218.596924,96.818405 
	C218.268158,98.823738 217.571854,100.736061 216.875565,102.648392 
	C215.256790,100.610497 213.536804,98.642830 212.056183,96.509079 
	C211.127701,95.171051 210.558929,93.583435 209.455109,92.054939 
	C208.973175,91.593834 208.864868,91.185593 209.049606,90.313004 
	C214.408005,85.386566 214.642441,84.157196 211.907730,77.770660 
	C211.622955,77.105621 211.864639,76.215149 211.862061,75.429276 
	C212.689270,76.556007 213.994949,77.581017 214.259933,78.827286 
	C215.341507,83.914314 216.067734,89.075928 217.020752,94.192200 
	C217.186279,95.080811 217.814743,95.883194 218.596924,96.818405 
z"/>
<path fill="#192376" opacity="1.000000" stroke="none" 
	d="
M43.358459,105.313782 
	C41.638973,99.716507 38.571827,93.774925 38.378117,87.741104 
	C38.179722,81.561462 40.666374,75.256294 42.345451,69.106461 
	C42.550682,68.354774 45.030697,68.224167 46.453911,68.177536 
	C45.360966,69.564171 43.756226,70.375221 43.260773,71.625755 
	C38.875477,82.694344 39.127094,93.828629 43.358459,105.313782 
z"/>
<path fill="#192376" opacity="1.000000" stroke="none" 
	d="
M48.990440,71.406090 
	C50.163239,71.323090 51.641949,72.080505 52.691082,71.688431 
	C54.569592,70.986404 57.451420,69.822456 57.702087,68.448158 
	C58.877125,62.005989 59.298416,55.426334 59.994385,48.452408 
	C60.385174,49.664345 61.225285,51.363007 61.072407,52.967026 
	C60.569691,58.241631 59.945869,63.531929 58.861969,68.710152 
	C58.443211,70.710724 56.946529,73.613617 55.437759,73.968964 
	C53.603718,74.400917 51.238308,72.576706 48.990440,71.406090 
z"/>
<path fill="#192376" opacity="1.000000" stroke="none" 
	d="
M96.585938,131.117935 
	C94.908669,131.954437 92.861092,133.252274 90.692078,133.504089 
	C82.237694,134.485657 73.756859,135.062454 66.142769,129.262253 
	C75.838638,132.483215 85.833549,134.108047 96.585938,131.117935 
z"/>
<path fill="#EB1748" opacity="1.000000" stroke="none" 
	d="
M211.590942,75.308540 
	C211.864639,76.215149 211.622955,77.105621 211.907730,77.770660 
	C214.642441,84.157196 214.408005,85.386566 209.003448,89.998535 
	C208.427872,89.316895 208.191498,88.485359 208.275421,87.072517 
	C208.613113,82.677231 206.351852,78.548477 210.147644,75.256424 
	C210.538361,75.233551 210.929092,75.210678 211.590942,75.308540 
z"/>
<path fill="#192376" opacity="1.000000" stroke="none" 
	d="
M59.818871,47.648720 
	C52.973984,48.007309 45.926064,47.663105 38.959843,48.264816 
	C37.172340,48.419212 35.642616,51.558052 33.958817,53.711769 
	C31.812279,50.905235 33.419842,47.723549 36.141205,47.497543 
	C43.928036,46.850883 51.804813,47.287266 59.818871,47.648720 
z"/>
<path fill="#192376" opacity="1.000000" stroke="none" 
	d="
M37.396866,67.949966 
	C36.459919,73.729774 35.267384,79.757111 33.727730,85.905502 
	C34.634167,80.083534 35.887722,74.140518 37.396866,67.949966 
z"/>
<path fill="#192376" opacity="1.000000" stroke="none" 
	d="
M119.810974,125.215172 
	C119.015533,124.088791 118.539154,122.772011 117.985588,121.241852 
	C115.854393,122.215034 114.118935,123.007515 112.022438,123.722427 
	C112.703751,122.638924 113.584106,121.241219 114.829475,120.726280 
	C116.382736,120.084045 118.236778,120.169235 119.960938,119.940338 
	C120.017303,121.635155 120.073669,123.329964 119.810974,125.215172 
z"/>
<path fill="#EB1A4C" opacity="1.000000" stroke="none" 
	d="
M209.797256,75.168106 
	C206.351852,78.548477 208.613113,82.677231 208.340973,86.735428 
	C207.502472,84.275787 207.018661,81.545326 206.307846,78.875313 
	C205.542740,76.001450 206.645386,74.893364 209.797256,75.168106 
z"/>
<path fill="#192376" opacity="1.000000" stroke="none" 
	d="
M108.713837,133.338486 
	C111.126305,131.390671 113.875519,129.356491 116.996506,127.297592 
	C114.595726,129.265961 111.823158,131.259033 108.713837,133.338486 
z"/>
<path fill="#FDDFE8" opacity="1.000000" stroke="none" 
	d="
M146.459045,92.917137 
	C146.801422,90.038925 147.510437,87.069809 148.539932,83.915291 
	C148.182159,86.762001 147.503922,89.794113 146.459045,92.917137 
z"/>
<path fill="#FDDFE8" opacity="1.000000" stroke="none" 
	d="
M150.277740,82.949364 
	C153.564362,80.977249 157.243317,80.419807 160.792145,83.698662 
	C157.446808,83.683647 154.086914,83.334908 150.277740,82.949364 
z"/>
<path fill="#192376" opacity="1.000000" stroke="none" 
	d="
M51.017868,117.592682 
	C49.419773,115.842514 47.712910,113.773216 46.017265,111.329590 
	C47.655350,113.061356 49.282223,115.167458 51.017868,117.592682 
z"/>
<path fill="#FDDFE8" opacity="1.000000" stroke="none" 
	d="
M151.748932,74.725433 
	C150.146149,75.178909 148.292542,75.361084 146.209351,75.305901 
	C147.819199,74.863739 149.658646,74.658943 151.748932,74.725433 
z"/>
<path fill="#FDDFE8" opacity="1.000000" stroke="none" 
	d="
M168.419006,96.924599 
	C168.210953,95.209564 168.361389,93.413742 168.715820,91.297745 
	C168.872391,92.932976 168.824951,94.888397 168.419006,96.924599 
z"/>
<path fill="#192376" opacity="1.000000" stroke="none" 
	d="
M36.708870,57.751060 
	C39.320366,56.511486 40.118149,57.857101 39.949814,60.741508 
	C38.898266,60.119316 37.866684,59.078953 36.708870,57.751060 
z"/>
<path fill="#FDDFE8" opacity="1.000000" stroke="none" 
	d="
M159.584412,95.175560 
	C159.760193,96.478905 159.639359,97.952332 159.304138,99.724274 
	C159.155762,98.463730 159.221786,96.904694 159.584412,95.175560 
z"/>
<path fill="#FDDFE8" opacity="1.000000" stroke="none" 
	d="
M139.641357,80.241188 
	C139.760025,81.800751 139.627777,83.592705 139.295807,85.705162 
	C139.194199,84.174973 139.292328,82.324272 139.641357,80.241188 
z"/>
<path fill="#FDDFE8" opacity="1.000000" stroke="none" 
	d="
M137.598175,96.218857 
	C137.727798,97.476151 137.602707,98.941650 137.280884,100.714951 
	C137.170578,99.490860 137.257019,97.958961 137.598175,96.218857 
z"/>
<path fill="#192376" opacity="1.000000" stroke="none" 
	d="
M63.126026,127.297325 
	C61.927803,126.925415 60.510578,126.324196 59.053032,125.348740 
	C60.310814,125.672333 61.608917,126.370171 63.126026,127.297325 
z"/>
<path fill="#FDDFE8" opacity="1.000000" stroke="none" 
	d="
M166.396942,109.844955 
	C166.267517,108.848167 166.426163,107.706253 166.781555,106.279678 
	C166.880539,107.229942 166.782761,108.464890 166.396942,109.844955 
z"/>
<path fill="#FDDFE8" opacity="1.000000" stroke="none" 
	d="
M144.416199,107.770630 
	C144.305695,106.524963 144.434082,105.063599 144.761475,103.296326 
	C144.858688,104.511932 144.756882,106.033424 144.416199,107.770630 
z"/>
<path fill="#192376" opacity="1.000000" stroke="none" 
	d="
M102.643295,128.974289 
	C101.740196,129.610794 100.474556,130.258820 98.784195,130.847290 
	C99.666573,130.187103 100.973663,129.586456 102.643295,128.974289 
z"/>
<path fill="#FED8E5" opacity="1.000000" stroke="none" 
	d="
M173.499146,91.167480 
	C173.697449,92.160759 173.620789,93.318550 173.330612,94.753128 
	C173.152786,93.797272 173.188461,92.564636 173.499146,91.167480 
z"/>
<path fill="#192376" opacity="1.000000" stroke="none" 
	d="
M33.296982,90.287460 
	C33.701694,90.902710 34.010876,91.829803 34.047127,92.917206 
	C33.583286,92.251450 33.392372,91.425369 33.296982,90.287460 
z"/>
<path fill="#192376" opacity="1.000000" stroke="none" 
	d="
M39.976730,62.308693 
	C39.935139,62.977287 39.761555,63.939991 39.265373,64.935394 
	C39.243435,64.179665 39.544086,63.391232 39.976730,62.308693 
z"/>
<path fill="#FDDFE8" opacity="1.000000" stroke="none" 
	d="
M133.450134,93.710739 
	C133.328110,92.519157 133.455994,91.053429 133.773849,89.277214 
	C133.875885,90.456688 133.787964,91.946632 133.450134,93.710739 
z"/>
<path fill="#192376" opacity="1.000000" stroke="none" 
	d="
M109.649879,124.985756 
	C109.186989,125.612045 108.415840,126.294952 107.281570,126.958992 
	C107.726173,126.307541 108.533897,125.674957 109.649879,124.985756 
z"/>
<path fill="#FDDFE8" opacity="1.000000" stroke="none" 
	d="
M112.859604,74.843750 
	C112.548424,75.390091 112.072823,75.698204 111.304062,76.008789 
	C111.572327,75.542686 112.133759,75.074104 112.859604,74.843750 
z"/>
<path fill="#192376" opacity="1.000000" stroke="none" 
	d="
M33.944504,54.363663 
	C34.527256,54.594002 35.151062,55.122974 35.707596,56.000404 
	C35.088737,55.786671 34.537151,55.224480 33.944504,54.363663 
z"/>
<path fill="#FDDFE8" opacity="1.000000" stroke="none" 
	d="
M134.420471,85.795059 
	C134.149780,85.239548 134.100174,84.493759 134.142426,83.382935 
	C134.370041,83.880196 134.505798,84.742485 134.420471,85.795059 
z"/>
<path fill="#FDDFE8" opacity="1.000000" stroke="none" 
	d="
M169.743622,83.649887 
	C169.433548,83.162262 169.279343,82.452316 169.164734,81.376884 
	C169.436066,81.816788 169.667801,82.622177 169.743622,83.649887 
z"/>
<path fill="#192376" opacity="1.000000" stroke="none" 
	d="
M38.699051,65.131622 
	C38.733318,65.814743 38.508736,66.692696 37.943657,67.663742 
	C37.882172,66.946701 38.161186,66.136589 38.699051,65.131622 
z"/>
<path fill="#FED8E5" opacity="1.000000" stroke="none" 
	d="
M172.486176,101.164612 
	C172.735214,101.450478 172.797287,101.893593 172.778778,102.665558 
	C172.565201,102.436897 172.432205,101.879379 172.486176,101.164612 
z"/>
<path fill="#192376" opacity="1.000000" stroke="none" 
	d="
M106.494659,134.477798 
	C106.668457,134.107330 107.147179,133.678726 107.980721,133.344269 
	C107.823555,133.765503 107.311562,134.092575 106.494659,134.477798 
z"/>
<path fill="#192376" opacity="1.000000" stroke="none" 
	d="
M65.403091,128.532501 
	C64.908539,128.618607 64.208839,128.439911 63.425556,127.890968 
	C63.960629,127.769722 64.579285,128.018707 65.403091,128.532501 
z"/>
<path fill="#192376" opacity="1.000000" stroke="none" 
	d="
M106.663315,126.941605 
	C106.501945,127.269203 106.044525,127.622475 105.279999,127.979843 
	C105.437683,127.645050 105.902481,127.306160 106.663315,126.941605 
z"/>
<path fill="#192376" opacity="1.000000" stroke="none" 
	d="
M111.418114,123.690460 
	C111.323112,124.051315 110.948273,124.490303 110.249893,124.940369 
	C110.330322,124.557159 110.734299,124.162872 111.418114,123.690460 
z"/>
<path fill="#192376" opacity="1.000000" stroke="none" 
	d="
M44.309414,107.486176 
	C43.964405,107.302643 43.587532,106.823082 43.313049,106.009804 
	C43.702808,106.180771 43.990177,106.685455 44.309414,107.486176 
z"/>
<path fill="#192376" opacity="1.000000" stroke="none" 
	d="
M58.870430,124.722900 
	C58.455124,124.723679 57.881470,124.463516 57.227264,123.882401 
	C57.668499,123.861618 58.190289,124.161789 58.870430,124.722900 
z"/>
<path fill="#FED8E5" opacity="1.000000" stroke="none" 
	d="
M175.809967,80.215073 
	C175.923950,80.635094 175.754974,81.221405 175.354660,82.014633 
	C175.257874,81.608162 175.392441,80.994766 175.809967,80.215073 
z"/>
<path fill="#FDDFE8" opacity="1.000000" stroke="none" 
	d="
M145.565598,97.745483 
	C145.400742,97.383690 145.444366,96.793190 145.661896,95.952782 
	C145.815216,96.307510 145.794647,96.912140 145.565598,97.745483 
z"/>
<path fill="#192376" opacity="1.000000" stroke="none" 
	d="
M46.629417,68.852600 
	C46.976444,68.885513 47.444641,69.157249 47.930885,69.753914 
	C47.549488,69.749702 47.150040,69.420570 46.629417,68.852600 
z"/>
<path fill="#192376" opacity="1.000000" stroke="none" 
	d="
M47.981968,70.301544 
	C48.200481,70.236420 48.484840,70.432045 48.847855,70.881462 
	C48.633614,70.944267 48.340714,70.753281 47.981968,70.301544 
z"/>
<path fill="#192376" opacity="1.000000" stroke="none" 
	d="
M104.672226,127.997833 
	C104.673584,128.244110 104.356636,128.512436 103.718719,128.795227 
	C103.716469,128.546432 104.035194,128.283142 104.672226,127.997833 
z"/>
<path fill="#FDDFE8" opacity="1.000000" stroke="none" 
	d="
M116.199707,74.191452 
	C116.162422,74.414917 115.855675,74.586220 115.280754,74.712479 
	C115.318459,74.491394 115.624352,74.315338 116.199707,74.191452 
z"/>
<path fill="#FDDFE8" opacity="1.000000" stroke="none" 
	d="
M155.878571,74.469048 
	C155.824127,74.669418 155.666275,74.740768 155.254562,74.756767 
	C155.154953,74.334755 155.413101,74.214294 155.878571,74.469048 
z"/>
<path fill="#FDDFE8" opacity="1.000000" stroke="none" 
	d="
M158.911774,74.513168 
	C158.828613,74.692390 158.661377,74.731895 158.256775,74.670883 
	C158.229340,74.239433 158.498764,74.173782 158.911774,74.513168 
z"/>
<path fill="#FDDFE8" opacity="1.000000" stroke="none" 
	d="
M132.925171,78.817596 
	C132.640015,78.957314 132.395004,78.751549 132.189423,78.200966 
	C132.477341,78.057472 132.722824,78.262794 132.925171,78.817596 
z"/>
<path fill="#192376" opacity="1.000000" stroke="none" 
	d="
M117.552483,127.276047 
	C117.468803,127.026512 117.634399,126.701759 118.093185,126.373276 
	C118.191505,126.646645 117.996635,126.923737 117.552483,127.276047 
z"/>
<path fill="#192376" opacity="1.000000" stroke="none" 
	d="
M118.612610,126.310028 
	C118.530937,126.060623 118.684013,125.738655 119.127754,125.439819 
	C119.335831,125.800575 119.145477,126.058746 118.612610,126.310028 
z"/>
<path fill="#FDDFE8" opacity="1.000000" stroke="none" 
	d="
M128.855652,75.451225 
	C128.988464,75.637733 128.527695,75.661339 128.527695,75.661339 
	C128.527695,75.661339 128.119400,75.446442 127.986443,75.257462 
	C128.174988,74.993416 128.464767,75.058823 128.855652,75.451225 
z"/>
<path fill="#FDDFE8" opacity="1.000000" stroke="none" 
	d="
M163.844543,75.404755 
	C163.980545,75.581749 163.531784,75.621330 163.531784,75.621330 
	C163.531784,75.621330 163.123138,75.431679 162.988678,75.250443 
	C163.164642,74.983986 163.449417,75.036842 163.844543,75.404755 
z"/>
<path fill="#192376" opacity="1.000000" stroke="none" 
	d="
M35.710873,56.582455 
	C35.958076,56.507362 36.276020,56.670654 36.573261,57.124020 
	C36.210655,57.326702 35.953671,57.128952 35.710873,56.582455 
z"/>
<path fill="#192376" opacity="1.000000" stroke="none" 
	d="
M56.291603,122.828888 
	C56.206482,122.869904 56.197174,122.844269 56.188923,122.847740 
	C56.180672,122.851212 56.376720,122.787880 56.291603,122.828888 
z"/>
<path fill="#192376" opacity="1.000000" stroke="none" 
	d="
M52.017044,118.708221 
	C51.804665,118.770599 51.518803,118.571976 51.154259,118.117340 
	C51.364910,118.056618 51.654236,118.251923 52.017044,118.708221 
z"/>
<path fill="#FDDFE8" opacity="1.000000" stroke="none" 
	d="
M168.963486,79.813187 
	C168.692276,79.925262 168.483398,79.728394 168.338623,79.223297 
	C168.621017,79.100525 168.828705,79.296913 168.963486,79.813187 
z"/>
<path fill="#FDDFE8" opacity="1.000000" stroke="none" 
	d="
M158.125214,110.227890 
	C158.337494,110.131706 158.595642,110.326286 158.987579,110.736099 
	C158.825180,110.779816 158.508423,110.635597 158.125214,110.227890 
z"/>
<path fill="#192376" opacity="1.000000" stroke="none" 
	d="
M46.011971,110.669800 
	C45.770294,110.677460 45.498642,110.373665 45.207237,109.755882 
	C45.452316,109.747375 45.717155,110.052849 46.011971,110.669800 
z"/>
<path fill="#192376" opacity="1.000000" stroke="none" 
	d="
M44.972977,108.729507 
	C44.736595,108.744888 44.499611,108.491966 44.270557,107.970886 
	C44.509785,107.955544 44.741077,108.208382 44.972977,108.729507 
z"/>
<path fill="#FED8E5" opacity="1.000000" stroke="none" 
	d="
M174.094971,107.187347 
	C174.308304,107.128517 174.583755,107.316948 174.914001,107.757217 
	C174.698227,107.817581 174.427658,107.626099 174.094971,107.187347 
z"/>
<path fill="#FED8E5" opacity="1.000000" stroke="none" 
	d="
M176.628082,79.102921 
	C176.885925,79.344971 176.774628,79.639671 176.289749,79.981903 
	C176.032822,79.736839 176.147079,79.445541 176.628082,79.102921 
z"/>
<path fill="#FED8E5" opacity="1.000000" stroke="none" 
	d="
M173.017242,105.170013 
	C173.296356,105.081444 173.474228,105.285713 173.545135,105.783295 
	C173.257584,105.875671 173.083542,105.671082 173.017242,105.170013 
z"/>
<path fill="#FED8E5" opacity="1.000000" stroke="none" 
	d="
M174.606354,84.213318 
	C174.799088,84.381035 174.782211,84.759048 174.575195,85.355820 
	C174.388947,85.190918 174.392853,84.807259 174.606354,84.213318 
z"/>
<path fill="#FDDFE8" opacity="1.000000" stroke="none" 
	d="
M169.374115,86.919891 
	C169.192261,86.831711 169.158813,86.660004 169.232117,86.248611 
	C169.457474,86.187454 169.598419,86.356392 169.681564,86.550133 
	C169.707901,86.611488 169.579880,86.739082 169.374115,86.919891 
z"/>
<path fill="#FDDFE8" opacity="1.000000" stroke="none" 
	d="
M160.525238,89.232376 
	C160.732788,89.389946 160.742310,89.770432 160.575195,90.383080 
	C160.374786,90.228592 160.350998,89.841949 160.525238,89.232376 
z"/>
<path fill="#FDDFE8" opacity="1.000000" stroke="none" 
	d="
M138.493118,90.221329 
	C138.684891,90.380737 138.684464,90.751656 138.495026,91.336464 
	C138.304321,91.177856 138.302628,90.805344 138.493118,90.221329 
z"/>
<path fill="#192376" opacity="1.000000" stroke="none" 
	d="
M33.878025,95.061234 
	C33.969826,94.968895 34.050900,95.393639 34.047482,95.609253 
	C33.817219,95.667305 33.731274,95.443542 33.878025,95.061234 
z"/>
<path fill="#FDDFE8" opacity="1.000000" stroke="none" 
	d="
M167.506531,101.766937 
	C167.305237,101.612099 167.293076,101.238098 167.462585,100.641151 
	C167.661392,100.794724 167.678528,101.171257 167.506531,101.766937 
z"/>
<path fill="#F1F4FA" opacity="1.000000" stroke="none" 
	d="
M54.029430,51.605499 
	C54.418625,52.169155 54.807819,52.732811 55.169949,54.044933 
	C54.697540,58.491428 54.252197,62.189461 53.806858,65.887489 
	C53.806858,65.887489 53.342991,66.061287 52.856968,66.172981 
	C51.961811,66.127136 51.552681,65.969604 51.143547,65.812065 
	C51.143547,65.812065 51.085335,65.917542 51.055626,65.632385 
	C50.713356,65.154282 50.400799,64.961327 50.088242,64.768372 
	C50.089844,64.466690 49.975754,64.218109 49.423050,63.633888 
	C47.405182,61.484680 45.710239,59.724209 44.015293,57.963734 
	C43.995975,57.619400 43.850540,57.340942 43.278915,56.777721 
	C42.681259,56.233994 42.383678,56.040901 42.086098,55.847805 
	C42.086098,55.847805 42.058514,55.942158 42.027351,55.669540 
	C41.710880,55.194954 41.425575,54.992981 41.140270,54.791004 
	C41.140270,54.791004 41.096058,54.910374 41.025074,54.469650 
	C41.699558,53.342922 42.397259,52.134052 43.198704,52.060841 
	C46.792820,51.732513 50.416451,51.727306 54.029430,51.605499 
z"/>
<path fill="#192376" opacity="1.000000" stroke="none" 
	d="
M53.909050,51.262428 
	C50.416451,51.727306 46.792820,51.732513 43.198704,52.060841 
	C42.397259,52.134052 41.699558,53.342922 41.087761,54.458626 
	C38.469559,52.898197 38.634426,50.721584 41.910984,50.355068 
	C45.800507,49.919991 49.823509,50.678242 53.909050,51.262428 
z"/>
<path fill="#192376" opacity="1.000000" stroke="none" 
	d="
M54.128754,65.697006 
	C54.252197,62.189461 54.697540,58.491428 55.276230,54.383621 
	C55.089931,57.818069 54.770290,61.662292 54.128754,65.697006 
z"/>
<path fill="#192376" opacity="1.000000" stroke="none" 
	d="
M44.012459,58.334732 
	C45.710239,59.724209 47.405182,61.484680 49.225399,63.561077 
	C47.570320,62.153244 45.789970,60.429489 44.012459,58.334732 
z"/>
<path fill="#192376" opacity="1.000000" stroke="none" 
	d="
M51.120453,66.122437 
	C51.552681,65.969604 51.961811,66.127136 52.692486,66.358154 
	C52.935936,67.020325 52.857841,67.609016 52.653988,69.145790 
	C51.855206,67.753632 51.476280,67.093224 51.120453,66.122437 
z"/>
<path fill="#192376" opacity="1.000000" stroke="none" 
	d="
M42.168694,56.105904 
	C42.383678,56.040901 42.681259,56.233994 43.053474,56.690895 
	C42.835835,56.757805 42.543560,56.560905 42.168694,56.105904 
z"/>
<path fill="#192376" opacity="1.000000" stroke="none" 
	d="
M50.174278,65.038422 
	C50.400799,64.961327 50.713356,65.154282 51.113121,65.614426 
	C50.886993,65.690567 50.573654,65.499519 50.174278,65.038422 
z"/>
<path fill="#192376" opacity="1.000000" stroke="none" 
	d="
M41.203072,55.058338 
	C41.425575,54.992981 41.710880,55.194954 42.074532,55.655758 
	C41.857208,55.718285 41.561543,55.521976 41.203072,55.058338 
z"/>
<path fill="#FDEDF2" opacity="1.000000" stroke="none" 
	d="
M93.508759,75.642944 
	C93.528595,85.729073 88.924118,88.584198 76.871689,86.078278 
	C77.314514,82.199326 77.682739,78.265617 78.277222,74.366394 
	C78.395531,73.590424 79.415993,72.310707 79.959084,72.341606 
	C84.566162,72.603745 89.711983,70.672997 93.508759,75.642944 
z"/>
<path fill="#F3F5FA" opacity="1.000000" stroke="none" 
	d="
M314.137634,98.884331 
	C314.730286,94.356247 315.148193,90.222389 315.911407,86.153320 
	C316.682739,82.041344 320.083099,80.368217 325.157928,81.170792 
	C329.463135,81.851654 330.422150,84.600494 329.838806,88.406113 
	C329.311523,91.846092 329.154327,95.389191 328.203552,98.706139 
	C327.004089,102.890831 323.990143,105.140366 319.392548,104.989372 
	C315.628082,104.865746 314.178864,102.774673 314.137634,98.884331 
z"/>
<path fill="#FEE4EC" opacity="1.000000" stroke="none" 
	d="
M117.235764,89.795662 
	C115.641685,89.710938 114.500237,89.628571 111.926216,89.442833 
	C113.525757,86.529800 114.245125,83.213272 116.136940,82.284233 
	C118.481827,81.132698 122.183922,81.134674 124.549942,82.241364 
	C125.965065,82.903267 125.945335,86.632744 126.787254,89.798019 
	C122.931480,89.798019 120.309944,89.798019 117.235764,89.795662 
z"/>
<path fill="#FDE2E9" opacity="1.000000" stroke="none" 
	d="
M195.127884,86.083832 
	C194.078979,87.600761 193.152283,89.451416 191.981171,89.621750 
	C188.933533,90.065002 185.778625,89.770805 182.706467,89.770805 
	C182.029648,84.273048 183.455200,81.621231 187.648804,81.256958 
	C190.946228,80.970528 195.041229,80.135643 195.127884,86.083832 
z"/>
</svg>